<svg width="256" height="256" viewBox="0 0 256 256" fill="none" xmlns="http://www.w3.org/2000/svg">
<path d="M85.4093 115.443C89.3837 111.866 90.9734 106.699 90.576 101.532L131.512 86.8271C133.102 86.4296 133.897 84.4424 133.5 82.8527C133.102 81.263 131.115 80.468 129.525 80.8655L88.5888 95.5706C88.1915 94.7758 87.3965 93.9809 86.999 93.1861C81.435 86.8271 71.499 86.4296 65.1399 91.9937C58.7809 97.5578 58.3835 107.494 63.9477 113.853C69.1143 120.609 79.0503 121.404 85.4093 115.443Z" fill="#05A9BD"/>
<path d="M76.6766 35.1567C79.4588 33.1695 79.8563 29.1952 77.8691 26.8106C75.4844 24.4259 71.9075 24.0285 69.5228 26.0157C66.7406 28.0029 66.3434 31.5798 68.7278 34.362C70.715 36.7464 74.2922 37.1439 76.6766 35.1567Z" fill="#05A9BD"/>
<path d="M123.201 26.4134C125.585 24.4263 125.983 20.8493 123.996 18.0672C122.008 15.6826 118.431 15.2852 115.649 17.2724C113.265 19.2596 112.867 22.8365 114.854 25.6186C116.842 28.0032 120.816 28.4006 123.201 26.4134Z" fill="#05A9BD"/>
<path d="M109.381 44.2446C113.371 39.0061 112.5 31.6331 107.437 27.7762C102.373 23.9193 95.0336 25.0393 91.0437 30.2776C87.0539 35.5161 87.9243 42.8891 92.9881 46.7459C98.0519 50.6027 105.391 49.4828 109.381 44.2446Z" fill="#05A9BD"/>
<path d="M125.961 49.4642L108.872 55.8232C107.282 56.2207 106.487 58.2079 106.885 59.7976C107.282 61.3873 109.269 62.1823 110.859 61.7848L127.949 55.8232C131.526 60.5926 137.885 62.1823 143.051 59.4001C148.616 56.2207 150.603 49.0669 147.423 43.5026C144.244 37.9385 137.09 35.9513 131.526 39.1309C127.551 40.3232 125.564 44.695 125.961 49.4642Z" fill="#05A9BD"/>
<path d="M87.2099 77.9917C91.9314 73.4018 92.1623 65.9811 87.7254 61.4172C83.2886 56.8532 75.8646 56.8739 71.1431 61.4636C66.4216 66.0535 66.1909 73.4741 70.6275 78.0381C75.0644 82.602 82.4886 82.5813 87.2099 77.9917Z" fill="#05A9BD"/>
<path d="M91.387 146.439C91.387 145.246 91.387 144.054 90.9895 142.862L157.759 118.618C159.349 118.221 160.144 116.233 159.747 114.644C159.349 113.054 157.362 112.259 155.772 112.657L89.0023 136.9C86.2204 131.734 80.6563 128.554 74.2972 128.157C64.7587 127.759 56.4124 135.31 56.015 145.246C55.6176 154.785 63.1688 163.131 73.1048 163.529C83.0407 163.529 90.9895 155.977 91.387 146.439Z" fill="#05A9BD"/>
<path d="M207.686 106.711C209.495 97.2239 203.271 88.0665 193.783 86.2575C184.296 84.4486 175.139 90.673 173.33 100.16C171.521 109.647 177.746 118.804 187.233 120.613C196.72 122.422 205.877 116.198 207.686 106.711Z" fill="#05A9BD"/>
<path d="M112.95 186.517C118.228 180.344 117.503 171.062 111.331 165.784C105.158 160.505 95.8757 161.23 90.5977 167.403C85.3195 173.575 86.0445 182.857 92.2167 188.136C98.3892 193.414 107.672 192.689 112.95 186.517Z" fill="#05A9BD"/>
<path d="M178.828 133.721C174.854 137.297 173.264 142.464 173.661 147.631L132.725 162.336C131.135 162.733 130.341 164.721 130.738 166.31C131.135 167.9 133.123 168.695 134.712 168.298L175.649 153.592C176.046 154.387 176.841 155.182 177.238 155.977C182.803 162.336 192.739 162.733 199.098 157.169C205.456 151.605 205.854 141.669 200.29 135.31C195.123 128.554 185.187 127.759 178.828 133.721Z" fill="#05A9BD"/>
<path d="M187.581 214.003C184.799 215.99 184.401 219.965 186.388 222.349C188.376 224.734 191.953 225.131 194.735 223.144C197.119 221.157 197.517 217.58 195.53 214.798C193.543 212.413 189.965 212.016 187.581 214.003Z" fill="#05A9BD"/>
<path d="M141.077 222.745C138.692 224.732 138.295 228.309 140.282 231.091C142.269 233.475 145.846 233.873 148.628 231.886C151.013 229.899 151.411 226.321 149.423 223.54C147.436 221.155 143.462 220.757 141.077 222.745Z" fill="#05A9BD"/>
<path d="M173.197 218.884C177.188 213.646 176.319 206.273 171.256 202.414C166.193 198.556 158.853 199.675 154.862 204.912C150.871 210.15 151.74 217.524 156.803 221.382C161.866 225.24 169.206 224.121 173.197 218.884Z" fill="#05A9BD"/>
<path d="M138.297 199.695L155.387 193.335C156.977 192.938 157.772 190.951 157.375 189.361C156.977 187.771 154.99 186.976 153.4 187.374L136.31 193.335C132.733 188.566 126.374 186.976 121.208 189.759C115.643 192.938 113.656 200.092 116.836 205.656C120.015 211.22 127.169 213.207 132.733 210.028C136.708 208.836 138.695 204.464 138.297 199.695Z" fill="#05A9BD"/>
<path d="M193.11 187.697C197.832 183.108 198.063 175.687 193.626 171.123C189.189 166.559 181.765 166.579 177.044 171.169C172.322 175.759 172.091 183.18 176.528 187.744C180.965 192.308 188.389 192.287 193.11 187.697Z" fill="#05A9BD"/>
<path d="M173.635 81.7615C178.913 75.5893 178.188 66.3067 172.016 61.0287C165.844 55.7504 156.561 56.4754 151.283 62.6477C146.005 68.8201 146.73 78.1025 152.902 83.3805C159.074 88.6587 168.357 87.9337 173.635 81.7615Z" fill="#05A9BD"/>
</svg>
